<svg width="1300" height="1300" viewBox="0 0 1300 1300" fill="none" xmlns="http://www.w3.org/2000/svg">
<path d="M352.236 615.476C410.31 760.395 857.095 771.403 987.028 616.185C998.158 602.889 1032.96 561.313 1020.29 527.537C1003.68 483.281 916.272 480.928 903.981 480.731C836.11 479.647 821.373 508.625 733.777 533.21C690.167 545.45 609.881 567.984 521.022 548.812C437.754 530.846 403.046 488.359 372.094 507.679C345.109 524.523 337.286 578.166 352.236 615.476Z" fill="#CCD8E4"/>
<path d="M645.026 454.289H1043C1043 454.289 1053.41 714.289 783.253 714.289C645.092 714.289 639.026 714.289 639.026 714.289" stroke="black" stroke-width="23" stroke-miterlimit="10" stroke-linecap="round" stroke-linejoin="round"/>
<path d="M655.026 454.289H257.053C257.053 454.289 246.644 714.289 516.799 714.289C654.961 714.289 661.026 714.289 661.026 714.289" stroke="black" stroke-width="23" stroke-miterlimit="10" stroke-linecap="round" stroke-linejoin="round"/>
<path d="M783.526 716.289H516.526V814.289H783.526V716.289Z" stroke="black" stroke-width="23" stroke-miterlimit="10" stroke-linecap="round" stroke-linejoin="round"/>
<path d="M863.526 173.79V126.146C863.526 66.916 815.755 19 756.526 19C697.297 19 649.526 67.114 649.526 126.344V454.79" stroke="black" stroke-width="23" stroke-miterlimit="10" stroke-linecap="round" stroke-linejoin="round"/>
<path d="M913.605 322.888C913.605 350.225 891.444 372.386 864.108 372.386C836.771 372.386 814.61 350.225 814.61 322.888L863.693 234.891L913.605 322.888Z" stroke="black" stroke-width="23" stroke-miterlimit="10" stroke-linecap="round" stroke-linejoin="round"/>
<path d="M558.809 1036.29L650.026 945.072L741.243 1036.29" stroke="black" stroke-width="23" stroke-miterlimit="10" stroke-linecap="round" stroke-linejoin="round"/>
<path d="M741.243 1188.29L650.026 1279.51L558.809 1188.29" stroke="black" stroke-width="23" stroke-miterlimit="10" stroke-linecap="round" stroke-linejoin="round"/>
<path d="M649.526 945.789V1271.79" stroke="black" stroke-width="23" stroke-miterlimit="10" stroke-linecap="round" stroke-linejoin="round"/>
</svg>
