<svg width="1300" height="1300" viewBox="0 0 1300 1300" fill="none" xmlns="http://www.w3.org/2000/svg">
<path opacity="0.8" d="M413.095 651.001C404.296 671.173 356.6 780.511 413.095 853.001C470.171 926.237 596.435 914.186 673.095 874.001C689.959 865.161 758.726 829.114 782.095 752.001C813.502 648.367 751.43 508.458 644.095 486.001C533.827 462.93 444.826 578.26 413.095 651.001Z" fill="#BC2D19"/>
<path d="M384.836 844.341H363.81C354.302 844.341 346.585 852.047 346.585 861.567V985.505C346.585 995.025 354.302 1002.73 363.81 1002.73H936.08C945.588 1002.73 953.305 995.025 953.305 985.505V861.567C953.305 852.047 945.588 844.341 936.08 844.341H914.767L914.756 749.868C914.928 745.803 915.054 741.715 915.054 737.615C915.054 615.307 832.191 509.465 713.557 480.24C671.896 469.962 627.961 469.962 586.346 480.24C467.7 509.476 384.837 615.306 384.837 737.626V844.341H384.836ZM918.855 968.292H381.035V878.803H402.061H897.53H918.843V968.292H918.855ZM419.285 737.627C419.285 631.211 491.366 539.127 594.589 513.703C630.841 504.757 669.012 504.746 705.322 513.703C808.522 539.127 880.614 631.2 880.614 737.627C880.614 741.222 880.488 744.804 880.327 749.11V844.34H419.285V737.627Z" fill="#333333"/>
<path d="M681.954 541.882C672.71 539.62 663.397 545.258 661.123 554.491C658.85 563.735 664.488 573.059 673.731 575.333C758.547 596.221 817.778 671.907 817.778 759.364C817.778 768.884 825.495 776.589 835.003 776.589C844.512 776.589 852.229 768.884 852.229 759.364C852.217 656.014 782.215 566.583 681.954 541.882Z" fill="#333333"/>
<path d="M884.726 895.693H717.61C708.102 895.693 700.385 903.398 700.385 912.918C700.385 922.439 708.102 930.144 717.61 930.144H884.738C894.246 930.144 901.963 922.439 901.963 912.918C901.962 903.398 894.235 895.693 884.726 895.693Z" fill="#333333"/>
<path d="M649.95 405.093C659.458 405.093 667.175 397.387 667.175 387.868V314.225C667.175 304.705 659.458 297 649.95 297C640.442 297 632.725 304.705 632.725 314.225V387.868C632.725 397.388 640.442 405.093 649.95 405.093Z" fill="#333333"/>
<path d="M218.225 726.934H315.546C325.054 726.934 332.771 719.229 332.771 709.709C332.771 700.189 325.054 692.484 315.546 692.484H218.225C208.717 692.484 201 700.189 201 709.709C201 719.229 208.717 726.934 218.225 726.934Z" fill="#333333"/>
<path d="M976.03 726.934H1081.64C1091.15 726.934 1098.87 719.229 1098.87 709.709C1098.87 700.189 1091.15 692.484 1081.64 692.484H976.03C966.522 692.484 958.805 700.189 958.805 709.709C958.805 719.229 966.522 726.934 976.03 726.934Z" fill="#333333"/>
<path d="M879.318 493.411C883.727 493.411 888.137 491.734 891.502 488.37L955.016 424.856C961.745 418.138 961.745 407.218 955.016 400.5C948.287 393.771 937.389 393.771 930.661 400.5L867.146 464.014C860.417 470.732 860.417 481.653 867.146 488.37C870.498 491.723 874.908 493.411 879.318 493.411Z" fill="#333333"/>
<path d="M400.086 488.381C403.451 491.746 407.86 493.422 412.27 493.422C416.68 493.422 421.089 491.746 424.454 488.381C431.183 481.663 431.183 470.754 424.454 464.025L364.982 404.553C358.253 397.824 347.355 397.824 340.626 404.553C333.897 411.271 333.897 422.18 340.626 428.909L400.086 488.381Z" fill="#333333"/>
</svg>
