<svg width="1300" height="1300" viewBox="0 0 1300 1300" fill="none" xmlns="http://www.w3.org/2000/svg">
<path d="M627.99 641.246C688.014 630.514 775.198 650.345 807.921 704.409C866.681 801.495 724.071 959.157 554.677 1039.35C554.677 1039.35 279.148 1173.51 228.766 925.004C224.219 902.582 238.921 813.529 299.761 775.492C299.761 775.492 448.614 673.322 627.99 641.246Z" fill="#CCD8E4"/>
<path d="M671.382 672.044C794.83 672.044 894.904 571.97 894.904 448.522C894.904 325.074 794.83 225 671.382 225C547.934 225 447.86 325.074 447.86 448.522C447.86 571.97 547.934 672.044 671.382 672.044Z" stroke="#333333" stroke-width="23" stroke-miterlimit="10"/>
<path d="M508.957 597.302L370.971 669.174C370.971 669.174 289.977 714.112 277.976 861.127C265.975 1008.14 272.199 947.52 272.199 947.52C272.199 947.52 259.206 1019.75 347.206 1019.75C435.206 1019.75 680.093 1019.75 680.093 1019.75" stroke="#333333" stroke-width="23" stroke-miterlimit="10"/>
<path d="M833.536 597.302L971.676 669.174C971.676 669.174 1052.75 714.112 1064.75 861.127C1076.75 1008.14 1070.56 947.52 1070.56 947.52C1070.56 947.52 1083.59 1019.75 995.595 1019.75C907.595 1019.75 662.092 1019.75 662.092 1019.75" stroke="#333333" stroke-width="23" stroke-miterlimit="10"/>
</svg>
