<svg width="1300" height="1300" viewBox="0 0 1300 1300" fill="none" xmlns="http://www.w3.org/2000/svg">
<path d="M769.791 637.976C852.371 651.719 954.799 717.958 970.184 803.739C997.807 957.777 736.237 1097.82 478.5 1124.25C478.5 1124.25 57.4397 1172.09 115.496 824.084C120.733 792.683 183.707 683.121 280.844 661.563C280.843 661.562 523.004 596.916 769.791 637.976Z" fill="#CCD8E4"/>
<path d="M788.178 746.155C911.626 746.155 1011.7 646.08 1011.7 522.632C1011.7 399.184 911.626 299.109 788.178 299.109C664.729 299.109 564.655 399.184 564.655 522.632C564.655 646.08 664.729 746.155 788.178 746.155Z" stroke="#333333" stroke-width="23" stroke-miterlimit="10"/>
<path d="M626.053 671.347L487.917 743.251C487.917 743.251 406.849 788.206 394.847 935.221C382.846 1082.24 389.033 1021.56 389.033 1021.56C389.033 1021.56 376.002 1093.74 464.002 1093.74C552.002 1093.74 797.491 1093.74 797.491 1093.74" stroke="#333333" stroke-width="23" stroke-miterlimit="10"/>
<path d="M950.634 671.347L1088.62 743.251C1088.62 743.251 1169.62 788.206 1181.62 935.221C1193.62 1082.24 1187.4 1021.56 1187.4 1021.56C1187.4 1021.56 1200.39 1093.74 1112.39 1093.74C1024.39 1093.74 779.49 1093.74 779.49 1093.74" stroke="#333333" stroke-width="23" stroke-miterlimit="10"/>
<path d="M565.125 527.05C540.913 538.628 513.799 545.112 485.17 545.112C382.691 545.112 299.614 462.036 299.614 359.556C299.614 257.076 382.691 174 485.17 174C579.622 174 657.591 244.57 669.227 335.86" stroke="#333333" stroke-width="23" stroke-miterlimit="10"/>
<path d="M350.324 483.052L235.781 542.723C235.781 542.723 168.547 580.031 158.584 702.076C148.621 824.12 153.789 773.782 153.789 773.782C153.789 773.782 143.004 833.736 216.057 833.736C260.621 833.736 419.49 833.736 419.49 833.736" stroke="#333333" stroke-width="23" stroke-miterlimit="10"/>
</svg>
