<svg width="1300" height="1300" viewBox="0 0 1300 1300" fill="none" xmlns="http://www.w3.org/2000/svg">
<path d="M618 772C708.299 772 781.5 682.457 781.5 572C781.5 461.543 708.299 372 618 372C527.701 372 454.5 461.543 454.5 572C454.5 682.457 527.701 772 618 772Z" fill="#CCD8E4"/>
<path d="M887.557 812.886C850.225 881.961 783.322 928 707 928C589.916 928 495 819.653 495 686C495 552.347 589.916 444 707 444C787.467 444 857.463 495.175 893.374 570.568" stroke="#333333" stroke-width="23" stroke-miterlimit="10" stroke-linecap="round" stroke-linejoin="round"/>
<path d="M407 639.5H663" stroke="#333333" stroke-width="23" stroke-miterlimit="10" stroke-linecap="round" stroke-linejoin="round"/>
<path d="M407 733.5H663" stroke="#333333" stroke-width="23" stroke-miterlimit="10" stroke-linecap="round" stroke-linejoin="round"/>
</svg>
