<svg width="1300" height="1300" viewBox="0 0 1300 1300" fill="none" xmlns="http://www.w3.org/2000/svg">
<path d="M232.177 632.891C213.877 563.02 218.138 452.338 293.732 395.775C330.232 368.464 384.889 352.627 438.34 366.647C453.241 370.556 510.825 385.66 528.493 430.807C548.56 482.086 492.891 510.186 497.358 590.984C500.669 650.876 532.558 658.97 529.264 714.232C526.789 755.773 505.121 812.425 465.329 828.571C393.875 857.562 264.363 755.779 232.177 632.891Z" fill="#CCD8E4"/>
<path opacity="0.8" d="M1070.3 639.663C1088.6 709.534 1084.34 820.216 1008.74 876.779C972.242 904.091 917.585 919.927 864.134 905.907C849.234 901.999 791.649 886.894 773.982 841.748C753.915 790.469 809.583 762.369 805.117 681.571C801.806 621.678 769.918 613.585 773.211 558.323C775.687 516.782 797.355 460.13 837.146 443.985C908.599 414.993 1038.11 516.774 1070.3 639.663Z" fill="#CBD7E3"/>
<path d="M640 104V1196" stroke="#333333" stroke-width="23" stroke-miterlimit="10" stroke-linecap="round" stroke-linejoin="round"/>
<path d="M336.25 420C382.09 420 419.25 382.84 419.25 337C419.25 291.16 382.09 254 336.25 254C290.41 254 253.25 291.16 253.25 337C253.25 382.84 290.41 420 336.25 420Z" stroke="#333333" stroke-width="23" stroke-miterlimit="10" stroke-linecap="round" stroke-linejoin="round"/>
<path d="M334.5 423.5H245.75C245.75 423.5 160 419.014 160 507.764C160 596.514 160 731.5 160 731.5H248V1043.5H336.5" stroke="#333333" stroke-width="23" stroke-miterlimit="10" stroke-linecap="round" stroke-linejoin="round"/>
<path d="M335.5 423.5H427.25C427.25 423.5 510 419.014 510 507.764C510 596.514 510 731.5 510 731.5H422V1043.5H333.5" stroke="#333333" stroke-width="23" stroke-miterlimit="10" stroke-linecap="round" stroke-linejoin="round"/>
<path d="M335 1038V784" stroke="#333333" stroke-width="23" stroke-miterlimit="10" stroke-linecap="round" stroke-linejoin="round"/>
<path d="M248 726V544" stroke="#333333" stroke-width="23" stroke-miterlimit="10" stroke-linecap="round" stroke-linejoin="round"/>
<path d="M422 726V544" stroke="#333333" stroke-width="23" stroke-miterlimit="10" stroke-linecap="round" stroke-linejoin="round"/>
<path d="M946.25 422C992.09 422 1029.25 384.84 1029.25 339C1029.25 293.16 992.09 256 946.25 256C900.41 256 863.25 293.16 863.25 339C863.25 384.84 900.41 422 946.25 422Z" stroke="#333333" stroke-width="23" stroke-miterlimit="10" stroke-linecap="round" stroke-linejoin="round"/>
<path d="M945 1037V853" stroke="#333333" stroke-width="23" stroke-miterlimit="10" stroke-linecap="round" stroke-linejoin="round"/>
<path d="M891.125 556C881.125 578 773.25 851.5 773.25 851.5H860V1043.5H948.5" stroke="#333333" stroke-width="23" stroke-miterlimit="10" stroke-linecap="round" stroke-linejoin="round"/>
<path d="M811.75 739.5L751.75 697.5L805.75 517.5C805.75 517.5 823.75 423 948.75 423" stroke="#333333" stroke-width="23" stroke-miterlimit="10" stroke-linecap="round" stroke-linejoin="round"/>
<path d="M1000.12 556C1010.12 578 1119.25 851.5 1119.25 851.5H1030V1043.5H941.5" stroke="#333333" stroke-width="23" stroke-miterlimit="10" stroke-linecap="round" stroke-linejoin="round"/>
<path d="M1080.75 739.5L1140.75 697.5L1086.75 517.5C1086.75 517.5 1068.75 423 943.75 423" stroke="#333333" stroke-width="23" stroke-miterlimit="10" stroke-linecap="round" stroke-linejoin="round"/>
</svg>
