<svg width="1300" height="1300" viewBox="0 0 1300 1300" fill="none" xmlns="http://www.w3.org/2000/svg">
<path opacity="0.8" d="M800.92 638.215C823.205 723.302 818.017 858.087 725.96 926.969C681.512 960.228 614.951 979.515 549.859 962.441C531.713 957.682 461.588 939.288 440.073 884.309C415.635 821.863 483.427 787.643 477.989 689.249C473.957 616.313 435.124 606.457 439.134 539.161C442.149 488.573 468.535 419.583 516.993 399.922C604.007 364.617 761.724 488.564 800.92 638.215Z" fill="#CBD7E3"/>
<path d="M649.858 373.15C705.68 373.15 750.933 327.897 750.933 272.075C750.933 216.253 705.68 171 649.858 171C594.036 171 548.783 216.253 548.783 272.075C548.783 327.897 594.036 373.15 649.858 373.15Z" stroke="#333333" stroke-width="23" stroke-miterlimit="10" stroke-linecap="round" stroke-linejoin="round"/>
<path d="M648.336 1122.08V898.013" stroke="#333333" stroke-width="23" stroke-miterlimit="10" stroke-linecap="round" stroke-linejoin="round"/>
<path d="M582.728 536.332C570.55 563.124 439.182 896.186 439.182 896.186H544.825V1130H652.598" stroke="#333333" stroke-width="23" stroke-miterlimit="10" stroke-linecap="round" stroke-linejoin="round"/>
<path d="M486.067 759.795L413 708.648L478.76 489.448C478.76 489.448 500.68 374.368 652.902 374.368" stroke="#333333" stroke-width="23" stroke-miterlimit="10" stroke-linecap="round" stroke-linejoin="round"/>
<path d="M715.465 536.332C727.643 563.124 860.533 896.186 860.533 896.186H751.846V1130H644.074" stroke="#333333" stroke-width="23" stroke-miterlimit="10" stroke-linecap="round" stroke-linejoin="round"/>
<path d="M813.649 759.795L886.715 708.648L820.955 489.448C820.955 489.448 799.035 374.368 646.813 374.368" stroke="#333333" stroke-width="23" stroke-miterlimit="10" stroke-linecap="round" stroke-linejoin="round"/>
</svg>
