<svg width="1300" height="1300" viewBox="0 0 1300 1300" fill="none" xmlns="http://www.w3.org/2000/svg">
<path d="M510.718 630.476C488.478 545.561 493.656 411.046 585.527 342.303C629.886 309.112 696.312 289.864 761.273 306.903C779.382 311.653 849.367 330.01 870.838 384.878C895.226 447.199 827.57 481.349 832.998 579.545C837.022 652.334 875.777 662.17 871.775 729.331C868.766 779.817 842.432 848.668 794.073 868.29C707.234 903.523 549.834 779.826 510.718 630.476Z" fill="#CCD8E4"/>
<path d="M637.201 371.744C692.911 371.744 738.073 326.582 738.073 270.872C738.073 215.162 692.911 170 637.201 170C581.491 170 536.329 215.162 536.329 270.872C536.329 326.582 581.491 371.744 637.201 371.744Z" stroke="#333333" stroke-width="23" stroke-miterlimit="10" stroke-linecap="round" stroke-linejoin="round"/>
<path d="M635.074 375.998H527.214C527.214 375.998 423 370.545 423 478.406C423 586.266 423 750.319 423 750.319H529.949V1129.5H637.505" stroke="#333333" stroke-width="23" stroke-miterlimit="10" stroke-linecap="round" stroke-linejoin="round"/>
<path d="M636.289 375.998H747.795C747.795 375.998 848.363 370.545 848.363 478.406C848.363 586.266 848.363 750.319 848.363 750.319H741.414V1129.5H633.859" stroke="#333333" stroke-width="23" stroke-miterlimit="10" stroke-linecap="round" stroke-linejoin="round"/>
<path d="M635.682 1122.81V814.123" stroke="#333333" stroke-width="23" stroke-miterlimit="10" stroke-linecap="round" stroke-linejoin="round"/>
<path d="M529.949 743.634V522.444" stroke="#333333" stroke-width="23" stroke-miterlimit="10" stroke-linecap="round" stroke-linejoin="round"/>
<path d="M741.415 743.634V522.444" stroke="#333333" stroke-width="23" stroke-miterlimit="10" stroke-linecap="round" stroke-linejoin="round"/>
</svg>
