<svg width="1300" height="1300" viewBox="0 0 1300 1300" fill="none" xmlns="http://www.w3.org/2000/svg">
<path d="M330.742 931H889C968.75 931 1034 865.75 1034 786V712C1034 632.25 968.75 567 889 567H330.742C300.084 567 275 592.084 275 622.742V875.258C275 905.916 300.084 931 330.742 931Z" fill="#CCD8E4"/>
<path d="M118.5 939V361" stroke="#333333" stroke-width="25" stroke-miterlimit="10" stroke-linejoin="round"/>
<path d="M116 927.5H871.283C1043.95 927.5 1184 803.273 1184 650C1184 496.726 1044.09 372.5 871.418 372.5H116" stroke="#333333" stroke-width="23" stroke-miterlimit="10" stroke-linejoin="round"/>
<path d="M119 837.5H879.34C997.85 837.5 1093.99 753.563 1093.99 650C1093.99 546.437 997.988 462.5 879.476 462.5H122" stroke="#333333" stroke-width="23" stroke-miterlimit="10" stroke-linejoin="round"/>
<path d="M466.5 839V470" stroke="#333333" stroke-width="23" stroke-miterlimit="10" stroke-linejoin="round"/>
<path d="M526.5 830V464" stroke="#333333" stroke-width="23" stroke-miterlimit="10" stroke-linejoin="round"/>
</svg>
