<svg width="1300" height="1300" viewBox="0 0 1300 1300" fill="none" xmlns="http://www.w3.org/2000/svg">
<path d="M363.296 583.715H800.809C863.31 583.715 914.448 532.577 914.448 470.076V412.081C914.448 349.58 863.31 298.443 800.809 298.443H363.296C339.269 298.443 319.609 318.101 319.609 342.129V540.029C319.61 564.056 339.269 583.715 363.296 583.715Z" fill="#CCD8E4"/>
<path d="M196.959 589.986V137" stroke="#333333" stroke-width="25" stroke-miterlimit="10" stroke-linejoin="round"/>
<path d="M195 580.974H786.924C922.249 580.974 1032 483.616 1032 363.494C1032 243.371 922.357 146.014 787.029 146.014H195" stroke="#333333" stroke-width="23" stroke-miterlimit="10" stroke-linejoin="round"/>
<path d="M197.351 510.439H793.239C886.116 510.439 961.465 444.657 961.465 363.493C961.465 282.329 886.226 216.547 793.347 216.547H199.703" stroke="#333333" stroke-width="23" stroke-miterlimit="10" stroke-linejoin="round"/>
<path d="M469.691 511.614V222.424" stroke="#333333" stroke-width="23" stroke-miterlimit="10" stroke-linejoin="round"/>
<path d="M516.713 504.562V217.723" stroke="#333333" stroke-width="23" stroke-miterlimit="10" stroke-linejoin="round"/>
<path d="M936.746 1156.37H499.232C436.731 1156.37 385.593 1105.23 385.593 1042.73V984.735C385.593 922.234 436.731 871.096 499.232 871.096H936.746C960.772 871.096 980.432 890.755 980.432 914.783V1112.68C980.431 1136.71 960.772 1156.37 936.746 1156.37Z" fill="#CCD8E4"/>
<path d="M1103.08 1162.64V709.652" stroke="#333333" stroke-width="25" stroke-miterlimit="10" stroke-linejoin="round"/>
<path d="M1105.04 1153.62H513.117C377.792 1153.62 268.037 1056.27 268.037 936.146C268.037 816.023 377.685 718.666 513.012 718.666H1105.04" stroke="#333333" stroke-width="23" stroke-miterlimit="10" stroke-linejoin="round"/>
<path d="M1102.69 1083.09H506.802C413.925 1083.09 338.576 1017.31 338.576 936.145C338.576 854.981 413.816 789.199 506.695 789.199H1100.34" stroke="#333333" stroke-width="23" stroke-miterlimit="10" stroke-linejoin="round"/>
<path d="M830.35 1084.27V795.076" stroke="#333333" stroke-width="23" stroke-miterlimit="10" stroke-linejoin="round"/>
<path d="M783.328 1077.21V790.375" stroke="#333333" stroke-width="23" stroke-miterlimit="10" stroke-linejoin="round"/>
</svg>
