<svg width="1300" height="1300" viewBox="0 0 1300 1300" fill="none" xmlns="http://www.w3.org/2000/svg">
<path d="M494.982 779.335C619.877 779.335 721.124 678.088 721.124 553.193C721.124 428.298 619.877 327.051 494.982 327.051C370.087 327.051 268.84 428.298 268.84 553.193C268.84 678.088 370.087 779.335 494.982 779.335Z" fill="#CCD8E4"/>
<path d="M430.824 498.875C475.007 498.875 510.824 463.058 510.824 418.875C510.824 374.692 475.007 338.875 430.824 338.875C386.641 338.875 350.824 374.692 350.824 418.875C350.824 463.058 386.641 498.875 430.824 498.875Z" stroke="#333333" stroke-width="23" stroke-miterlimit="10" stroke-linejoin="round"/>
<path d="M566.956 705.337C480.942 735.358 381.499 716.002 312.766 647.27C217.088 551.591 217.073 396.466 312.751 300.788C408.43 205.11 563.607 205.051 659.286 300.729C725.765 367.208 746.639 462.128 720.531 546.329L1059.75 885.212V1071.55H871.746V967.55H769.746V859.55H669.746V743.55H584.266L566.956 705.337Z" stroke="#333333" stroke-width="23" stroke-miterlimit="10" stroke-linejoin="round"/>
</svg>
