<svg width="1347" height="1300" viewBox="0 0 1347 1300" fill="none" xmlns="http://www.w3.org/2000/svg">
<path d="M85.217 1111.08H1252.22" stroke="#333333" stroke-width="23" stroke-miterlimit="10" stroke-linecap="round" stroke-linejoin="round"/>
<path d="M103.217 751.293L12 660.076L103.217 568.859" stroke="#333333" stroke-width="23" stroke-miterlimit="10" stroke-linecap="round" stroke-linejoin="round"/>
<path d="M255.217 568.859L346.434 660.076L255.217 751.293" stroke="#333333" stroke-width="23" stroke-miterlimit="10" stroke-linecap="round" stroke-linejoin="round"/>
<path d="M12.217 660.078H338.217" stroke="#333333" stroke-width="23" stroke-miterlimit="10" stroke-linecap="round" stroke-linejoin="round"/>
<path d="M1092.22 751.293L1001 660.076L1092.22 568.859" stroke="#333333" stroke-width="23" stroke-miterlimit="10" stroke-linecap="round" stroke-linejoin="round"/>
<path d="M1244.22 568.859L1335.43 660.076L1244.22 751.293" stroke="#333333" stroke-width="23" stroke-miterlimit="10" stroke-linecap="round" stroke-linejoin="round"/>
<path d="M1001.22 660.078H1327.22" stroke="#333333" stroke-width="23" stroke-miterlimit="10" stroke-linecap="round" stroke-linejoin="round"/>
<path d="M917.17 490.578H556.764C536.938 490.578 520.717 474.357 520.717 454.531V224.046C520.717 204.22 536.938 188 556.764 188H917.17C936.996 188 953.217 204.221 953.217 224.046V454.531C953.217 474.357 936.996 490.578 917.17 490.578Z" fill="#CCD8E4"/>
<path d="M441.217 229.895H905.217" stroke="#333333" stroke-width="23" stroke-miterlimit="10" stroke-linecap="round" stroke-linejoin="round"/>
<path d="M440.717 234.578V544.078H905.717V231.578" stroke="#333333" stroke-width="23" stroke-miterlimit="10" stroke-linecap="round" stroke-linejoin="round"/>
<path d="M614.717 549.578V653.578" stroke="#333333" stroke-width="23" stroke-miterlimit="10" stroke-linejoin="round"/>
<path d="M731.717 549.578V658.578" stroke="#333333" stroke-width="23" stroke-miterlimit="10" stroke-linejoin="round"/>
<path d="M400.972 721.872C400.972 721.872 407.916 657.078 448.193 657.078C488.469 657.078 674.217 657.078 674.217 657.078" stroke="#333333" stroke-width="23" stroke-miterlimit="10" stroke-linejoin="round"/>
<path d="M945.961 721.872C945.961 721.872 938.519 657.078 898.241 657.078C857.965 657.078 673.217 657.078 673.217 657.078" stroke="#333333" stroke-width="23" stroke-miterlimit="10" stroke-linejoin="round"/>
<path d="M687.217 716.078H390.133C390.133 716.078 323.589 783.734 416.401 810.002C509.213 836.27 365.617 973.078 661.564 978.078H685.039C980.986 973.078 837.224 836.269 930.036 810.002C1022.85 783.734 956.303 716.078 956.303 716.078H661.217" stroke="#333333" stroke-width="23" stroke-miterlimit="10" stroke-linejoin="round"/>
<path d="M564.17 971.746C564.17 971.746 471.396 1032.33 471.396 1096.08H690.217" stroke="#333333" stroke-width="23" stroke-miterlimit="10" stroke-linejoin="round"/>
<path d="M782.764 971.746C782.764 971.746 875.039 1032.33 875.039 1096.08H657.217" stroke="#333333" stroke-width="23" stroke-miterlimit="10" stroke-linejoin="round"/>
</svg>
