<svg width="1300" height="1300" viewBox="0 0 1300 1300" fill="none" xmlns="http://www.w3.org/2000/svg">
<path d="M495.2 1141.4C707.388 1141.4 879.4 969.388 879.4 757.2C879.4 545.012 707.388 373 495.2 373C283.012 373 111 545.012 111 757.2C111 969.388 283.012 1141.4 495.2 1141.4Z" fill="#BE6258"/>
<path d="M674 1141.2C958.206 1141.2 1188.6 910.806 1188.6 626.6C1188.6 342.394 958.206 112 674 112C389.794 112 159.4 342.394 159.4 626.6C159.4 910.806 389.794 1141.2 674 1141.2Z" stroke="#333333" stroke-width="23" stroke-miterlimit="10" stroke-linecap="round" stroke-linejoin="round"/>
<path d="M679.5 625.602V271.602" stroke="#333333" stroke-width="23" stroke-miterlimit="10" stroke-linecap="round" stroke-linejoin="round"/>
<path d="M679.2 625.602L879.4 425.402" stroke="#333333" stroke-width="23" stroke-miterlimit="10" stroke-linecap="round" stroke-linejoin="round"/>
</svg>
