<svg width="1300" height="1300" viewBox="0 0 1300 1300" fill="none" xmlns="http://www.w3.org/2000/svg">
<path d="M804.975 1141.1C1017.16 1141.1 1189.17 969.087 1189.17 756.899C1189.17 544.711 1017.16 372.699 804.975 372.699C592.787 372.699 420.775 544.711 420.775 756.899C420.775 969.087 592.787 1141.1 804.975 1141.1Z" fill="#CBD7E3"/>
<path d="M631.875 1141.2C916.081 1141.2 1146.47 910.806 1146.47 626.6C1146.47 342.394 916.081 112 631.875 112C347.669 112 117.275 342.394 117.275 626.6C117.275 910.806 347.669 1141.2 631.875 1141.2Z" stroke="#333333" stroke-width="23" stroke-miterlimit="10" stroke-linecap="round" stroke-linejoin="round"/>
<path d="M637.375 625.602V271.602" stroke="#333333" stroke-width="23" stroke-miterlimit="10" stroke-linecap="round" stroke-linejoin="round"/>
<path d="M637.075 625.602L837.275 425.402" stroke="#333333" stroke-width="23" stroke-miterlimit="10" stroke-linecap="round" stroke-linejoin="round"/>
</svg>
