<svg width="1300" height="1300" viewBox="0 0 1300 1300" fill="none" xmlns="http://www.w3.org/2000/svg">
<path d="M635.631 1005.4C584.427 907.408 603.708 810.005 615.933 748.249C619.835 728.539 624.59 711.245 637.506 695.219C662.127 664.669 714.366 641.247 760.38 667.202C800.451 689.805 784.505 765.021 811.969 771.262C824.481 774.106 829.523 760.114 850.425 755.253C881.401 748.051 915.4 769.649 932.029 787.272C960.269 817.199 952.579 879.635 936.044 1003.29C929.435 1052.72 923.095 1082.97 898.195 1100.22C883.19 1110.61 868.199 1111.6 839.114 1113.14C798.793 1115.28 753.819 1119.52 712.545 1094.45C669.626 1068.38 649.28 1031.52 635.631 1005.4Z" fill="#CCD8E4"/>
<path opacity="0.8" d="M707.355 423C750.157 423 784.855 388.302 784.855 345.5C784.855 302.698 750.157 268 707.355 268C664.553 268 629.855 302.698 629.855 345.5C629.855 388.302 664.553 423 707.355 423Z" fill="#BC2D19"/>
<path d="M598.105 1112.98C598.105 1112.98 526.03 1028.78 497.532 982.281C469.034 935.783 358 875.684 349 872.684L383.479 824.636C383.479 824.636 411.919 784.113 468.917 826.111C468.917 826.111 529.355 866.584 548.355 848.585V567C548.355 567 545.656 515.601 593.653 515.601C641.651 515.601 643.355 539.6 643.355 565.099C643.355 590.598 643.355 720.001 643.355 720.001" stroke="#333333" stroke-width="23" stroke-miterlimit="10" stroke-linecap="round" stroke-linejoin="round"/>
<path d="M643.855 673.5H691.855C691.855 673.5 732.355 670.589 732.355 713.839C732.355 757.089 732.355 757 732.355 757" stroke="#333333" stroke-width="23" stroke-miterlimit="10" stroke-linecap="round" stroke-linejoin="round"/>
<path d="M731.855 698.5H782.855C782.855 698.5 814.355 692.592 814.355 734.59C814.355 776.588 814.355 783 814.355 783" stroke="#333333" stroke-width="23" stroke-miterlimit="10" stroke-linecap="round" stroke-linejoin="round"/>
<path d="M814.855 728.5H862.855C862.855 728.5 905.355 728.082 905.355 771.084C905.355 814.086 905.355 997 905.355 997C905.355 997 914.933 1055.57 821.938 1126.07" stroke="#333333" stroke-width="23" stroke-miterlimit="10" stroke-linecap="round" stroke-linejoin="round"/>
<path d="M869.355 1083.85V1213.5H547.355V1053.5" stroke="#333333" stroke-width="23" stroke-miterlimit="10" stroke-linecap="round" stroke-linejoin="round"/>
<path d="M663.855 402C703.067 402 734.855 370.212 734.855 331C734.855 291.788 703.067 260 663.855 260C624.643 260 592.855 291.788 592.855 331C592.855 370.212 624.643 402 663.855 402Z" stroke="#333333" stroke-width="23" stroke-miterlimit="10" stroke-linecap="round" stroke-linejoin="round"/>
<path d="M500.855 331C500.855 240.978 573.833 168 663.855 168C753.877 168 826.855 240.978 826.855 331" stroke="#333333" stroke-width="23" stroke-miterlimit="10" stroke-linecap="round" stroke-linejoin="round"/>
<path d="M417.855 331C417.855 195.138 527.993 85 663.855 85C799.717 85 909.855 195.138 909.855 331" stroke="#333333" stroke-width="23" stroke-miterlimit="10" stroke-linecap="round" stroke-linejoin="round"/>
</svg>
