<svg width="1300" height="1300" viewBox="0 0 1300 1300" fill="none" xmlns="http://www.w3.org/2000/svg">
<path d="M519 392.682C511.156 375.411 501.703 347.856 504 314.682C511.356 208.422 631.7 153.629 643 148.682C736.3 107.833 881.031 114.522 916 192.682C936.666 238.873 918.729 309.428 876 341.682C817.852 385.576 751.496 330.075 681 379.682C638.36 409.687 634.699 449.651 601 452.682C568.348 455.619 538.533 421.091 519 392.682Z" fill="#CCD8E4" stroke="#CCD8E4" stroke-width="7" stroke-miterlimit="10" stroke-linecap="round" stroke-linejoin="round"/>
<path d="M902.5 225.183C804.869 127.551 644.22 129.911 543.678 230.451C443.137 330.993 440.778 491.642 538.409 589.273L902.5 225.183Z" stroke="#333333" stroke-width="23" stroke-miterlimit="10" stroke-linecap="round" stroke-linejoin="round"/>
<path d="M516.016 243.436C487.069 217.768 448.854 202.183 407.125 202.183C316.55 202.183 243 275.608 243 366.183V1175.68H173V366.183C173 236.949 277.891 132.183 407.125 132.183C471.233 132.183 529.445 157.964 571.709 199.723" stroke="#333333" stroke-width="23" stroke-miterlimit="10" stroke-linecap="round" stroke-linejoin="round"/>
<path d="M707.72 506.79L728.123 552.438" stroke="#333333" stroke-width="23" stroke-linecap="round" stroke-linejoin="round"/>
<path d="M755.253 613.137L795.947 704.185" stroke="#333333" stroke-width="23" stroke-linecap="round" stroke-linejoin="round" stroke-dasharray="66.49 66.49"/>
<path d="M809.513 734.535L829.916 780.182" stroke="#333333" stroke-width="23" stroke-linecap="round" stroke-linejoin="round"/>
<path d="M792.807 439.429L830.879 471.84" stroke="#333333" stroke-width="23" stroke-linecap="round" stroke-linejoin="round"/>
<path d="M881.505 514.937L957.443 579.583" stroke="#333333" stroke-width="23" stroke-linecap="round" stroke-linejoin="round" stroke-dasharray="66.49 66.49"/>
<path d="M982.757 601.132L1020.83 633.543" stroke="#333333" stroke-width="23" stroke-linecap="round" stroke-linejoin="round"/>
<path d="M846.956 360.031L893.661 377.881" stroke="#333333" stroke-width="23" stroke-linecap="round" stroke-linejoin="round"/>
<path d="M955.766 401.618L1048.92 437.223" stroke="#333333" stroke-width="23" stroke-linecap="round" stroke-linejoin="round" stroke-dasharray="66.49 66.49"/>
<path d="M1079.97 449.091L1126.68 466.942" stroke="#333333" stroke-width="23" stroke-linecap="round" stroke-linejoin="round"/>
</svg>
