<svg width="1300" height="1300" viewBox="0 0 1300 1300" fill="none" xmlns="http://www.w3.org/2000/svg">
<path d="M793.181 558.382C834.125 660.556 1149.12 668.316 1240.73 558.882C1248.58 549.507 1273.12 520.195 1264.18 496.382C1252.47 465.18 1190.85 463.52 1182.18 463.382C1134.33 462.618 1123.94 483.048 1062.18 500.382C1031.43 509.012 974.829 524.899 912.181 511.382C853.474 498.715 829.003 468.761 807.181 482.382C788.156 494.257 782.64 532.078 793.181 558.382Z" fill="#CCD8E4"/>
<path d="M574.134 543.383H213.728C193.902 543.383 177.681 527.162 177.681 507.336V276.851C177.681 257.025 193.902 240.805 213.728 240.805H574.134C593.96 240.805 610.181 257.026 610.181 276.851V507.336C610.181 527.162 593.96 543.383 574.134 543.383Z" fill="#CCD8E4"/>
<path d="M1004.18 449.883H1276.67C1276.67 449.883 1283.8 626.883 1098.71 626.883C1004.05 626.883 1000.18 626.883 1000.18 626.883" stroke="#333333" stroke-width="23" stroke-miterlimit="10" stroke-linecap="round" stroke-linejoin="round"/>
<path d="M1011.18 449.883H738.191C738.191 449.883 731.06 626.883 916.153 626.883C1010.81 626.883 1015.18 626.883 1015.18 626.883" stroke="#333333" stroke-width="23" stroke-miterlimit="10" stroke-linecap="round" stroke-linejoin="round"/>
<path d="M1098.68 628.883H916.681V695.883H1098.68V628.883Z" stroke="#333333" stroke-width="23" stroke-miterlimit="10" stroke-linecap="round" stroke-linejoin="round"/>
<path d="M1153.68 256.382V224.41C1153.68 183.83 1120.76 151 1080.18 151C1039.6 151 1006.68 183.965 1006.68 224.546V450.382" stroke="#333333" stroke-width="23" stroke-miterlimit="10" stroke-linecap="round" stroke-linejoin="round"/>
<path d="M1188.02 359.204C1188.02 377.933 1172.83 393.117 1154.11 393.117C1135.38 393.117 1120.19 377.934 1120.19 359.204L1153.82 298.914L1188.02 359.204Z" stroke="#333333" stroke-width="23" stroke-miterlimit="10" stroke-linecap="round" stroke-linejoin="round"/>
<path d="M98.1809 282.699H562.181" stroke="#333333" stroke-width="23" stroke-miterlimit="10" stroke-linecap="round" stroke-linejoin="round"/>
<path d="M97.6809 287.383V596.883H562.681V284.383" stroke="#333333" stroke-width="23" stroke-miterlimit="10" stroke-linecap="round" stroke-linejoin="round"/>
<path d="M271.681 602.383V706.383" stroke="#333333" stroke-width="23" stroke-miterlimit="10" stroke-linejoin="round"/>
<path d="M388.681 602.383V711.383" stroke="#333333" stroke-width="23" stroke-miterlimit="10" stroke-linejoin="round"/>
<path d="M57.9359 774.677C57.9359 774.677 64.8799 709.883 105.157 709.883C145.433 709.883 331.181 709.883 331.181 709.883" stroke="#333333" stroke-width="23" stroke-miterlimit="10" stroke-linejoin="round"/>
<path d="M602.925 774.677C602.925 774.677 595.483 709.883 555.205 709.883C514.929 709.883 330.181 709.883 330.181 709.883" stroke="#333333" stroke-width="23" stroke-miterlimit="10" stroke-linejoin="round"/>
<path d="M344.181 768.883H47.0969C47.0969 768.883 -19.4471 836.539 73.3649 862.807C166.177 889.075 22.5809 1025.88 318.528 1030.88H342.003C637.95 1025.88 494.187 889.074 587 862.807C679.812 836.539 613.267 768.883 613.267 768.883H318.181" stroke="#333333" stroke-width="23" stroke-miterlimit="10" stroke-linejoin="round"/>
<path d="M221.134 1024.55C221.134 1024.55 128.36 1085.14 128.36 1148.88H347.181" stroke="#333333" stroke-width="23" stroke-miterlimit="10" stroke-linejoin="round"/>
<path d="M439.728 1024.55C439.728 1024.55 532.003 1085.14 532.003 1148.88H314.181" stroke="#333333" stroke-width="23" stroke-miterlimit="10" stroke-linejoin="round"/>
</svg>
