<svg width="1300" height="1300" viewBox="0 0 1300 1300" fill="none" xmlns="http://www.w3.org/2000/svg">
<path opacity="0.8" d="M1090.93 521.717C1103.47 562.866 1104.1 630.35 1081.2 665.839C1040.07 729.573 954.344 659.534 886.525 579.524C886.525 579.524 775.166 458.792 892.464 368.129C903.048 359.944 947.387 358.545 983.045 372.756C983.046 372.756 1053.44 398.757 1090.93 521.717Z" fill="#BB2C18"/>
<path d="M260.999 681.797C228 681.636 201 708.503 201 741.503V877.003C201 910.003 228 937.003 261 937.003H954C987 937.003 1014 910.003 1014 877.003V460.003C1014 427.003 987 400.003 954 400.003H671C638 400.003 611 427.003 611 460.003V623.503C611 656.503 584 683.371 551.001 683.21L260.999 681.797Z" stroke="#333333" stroke-width="23" stroke-miterlimit="10"/>
</svg>
