<svg width="1300" height="1300" viewBox="0 0 1300 1300" fill="none" xmlns="http://www.w3.org/2000/svg">
<path d="M1067.01 351.689C1112.32 354.38 1173.99 382.748 1191.7 425.592C1223.5 502.53 1088.88 545.275 966.756 614.279C966.756 614.279 809.783 703.973 801.8 523.879C801.08 507.629 824.821 450.609 864.412 408.611C864.412 408.611 931.623 343.653 1067.01 351.689Z" fill="#CCD8E4"/>
<path d="M989.533 412.549C956.533 412.344 906.648 426.504 878.678 444.015L122.562 917.359C94.5909 934.869 98.7059 949.197 131.706 949.197H1116.89C1149.89 949.197 1176.89 922.197 1176.89 889.197V473.709C1176.89 440.709 1149.89 413.542 1116.89 413.337L989.533 412.549Z" stroke="#333333" stroke-width="23" stroke-miterlimit="10" stroke-linecap="round" stroke-linejoin="round"/>
</svg>
