<svg width="186" height="186" viewBox="0 0 186 186" fill="none" xmlns="http://www.w3.org/2000/svg">
<circle cx="93" cy="93" r="93" fill="white"/>
<path fill-rule="evenodd" clip-rule="evenodd" d="M87.8147 21.4724V21.3579C90.177 21.1193 92.5632 21 94.9732 21C107.279 20.9937 119.381 24.1437 130.122 30.149C140.863 36.1543 149.884 44.8141 156.322 55.3005C151.168 56.9754 142.377 59.8243 141.532 60.0676C137.92 61.1197 134.729 62.0482 131.895 62.873C113.517 68.221 110.119 69.2099 103.75 71.2625C102.812 71.5679 101.791 71.4893 100.911 71.0439C100.031 70.5985 99.363 69.8226 99.0536 68.8861C95.0305 56.7679 89.0603 30.8779 87.8147 21.4724ZM143.773 144.681L145.255 144.538C128.26 161.108 103.105 169.361 76.3968 162.676C63.9009 159.512 52.5111 152.984 43.4647 143.803C34.4183 134.621 28.0613 123.136 25.0843 110.595C16.2221 73.188 36.581 39.0163 67.9426 26.2825C68.9949 30.341 71.1639 38.7443 71.6149 40.5982C75.1942 56.1809 77.7712 65.343 81.1716 75.3425C81.4689 76.2182 81.4316 77.173 81.0668 78.0228C80.702 78.8727 80.0355 79.5574 79.1958 79.945C70.8489 83.7817 66.1815 86.4587 60.5836 90.596C51.5065 97.3172 46.4025 106.286 46.4025 115.649C46.4025 125.727 51.5065 134.409 60.2686 139.026C70.4624 144.359 84.3285 146.728 106.477 146.728C117.644 146.778 126.564 146.227 143.773 144.681ZM160.059 123.787C164.624 114.169 166.987 103.654 166.974 93.0081C166.991 86.0986 166.01 79.2227 164.06 72.5939C148.698 75.8507 116.821 84.2541 101.888 89.057C78.6303 96.6157 66.9976 105.577 66.9976 115.67C66.9976 125.891 77.8643 130.236 103.506 130.236C121.209 130.236 138.698 128.568 150.753 125.634C151.791 125.376 155.964 124.445 160.059 123.787Z" fill="#C95747"/>
</svg>
