<?xml version="1.0" encoding="utf-8"?>
<!-- Generator: Adobe Illustrator 16.0.0, SVG Export Plug-In . SVG Version: 6.00 Build 0)  -->
<!DOCTYPE svg PUBLIC "-//W3C//DTD SVG 1.1//EN" "http://www.w3.org/Graphics/SVG/1.1/DTD/svg11.dtd">
<svg version="1.1" xmlns="http://www.w3.org/2000/svg" xmlns:xlink="http://www.w3.org/1999/xlink" x="0px" y="0px" width="2000px"
	 height="2000px" viewBox="0 0 2000 2000" enable-background="new 0 0 2000 2000" xml:space="preserve">
<g id="icon">
	<g id="frame">
		<path fill="#FFFFFF" d="M1871,1473.5c0,220-179.5,400.5-399.5,400.5h-945c-220,0-400.5-180.5-400.5-400.5v-945
			c0-220,180.5-399.5,400.5-399.5h945c220,0,399.5,179.5,399.5,399.5V1473.5z"/>
	</g>
	<g id="icon_1_">
		<path fill="#BC2D19" d="M1516.347,1546.866c5.523-0.524,10.754-1.063,15.675-1.518
			c-179.818,175.364-445.994,262.672-728.646,191.896c-269.083-67.396-479.292-281.244-543.201-551.18
			c-93.722-395.868,121.685-757.683,453.546-892.25c11.145,42.952,34.09,131.889,38.873,151.811
			c38.095,164.914,65.148,261.884,101.132,367.711c6.514,19.243-2.5,40.224-20.91,48.715
			c-88.338,40.601-137.729,68.935-196.657,112.715c-96.065,71.136-150.07,166.052-150.07,265.375
			c0,106.658,54.004,198.553,146.736,247.408c107.866,56.438,254.602,81.518,488.994,81.518
			C1239.844,1569.068,1334.23,1563.233,1516.347,1546.866"/>
		<path fill="#BC2D19" d="M924.172,243.14c-0.076-0.38-0.152-0.835-0.226-1.213c24.998-2.501,50.371-3.788,76.056-3.788
			c274.536,0,515.134,145.22,649.218,363.014c-54.546,17.725-147.571,47.879-156.51,50.453
			c-286.129,83.026-322.036,93.405-399.834,118.477c-20.685,6.747-42.802-4.542-49.689-25.145
			C1000.528,616.458,937.355,342.453,924.172,243.14"/>
		<path fill="#BC2D19" d="M1761.86,1000.001c0,116.65-26.21,227.183-73.175,326.049c-43.336,6.967-87.5,16.813-98.633,19.543
			c-127.569,31.056-312.635,48.707-500.351,48.707c-271.361,0-386.133-45.992-386.133-154.158
			c0-106.816,123.102-201.656,369.23-281.658c158.025-50.831,495.361-139.767,657.929-174.544
			C1751.028,852.43,1761.86,924.928,1761.86,1000.001"/>
	</g>
</g>
</svg>
