<svg width="84" height="84" viewBox="0 0 84 84" xmlns="http://www.w3.org/2000/svg">
<path d="M44.1429 44.1429H60V38.8571H44.1429V23H38.8571V38.8571H23V44.1429H38.8571V60H44.1429V44.1429Z" />
<path clip-rule="evenodd" d="M0 42C0 18.8777 18.8777 0 42 0C65.1223 0 84 18.8777 84 42C84 65.1223 65.1223 84 42 84C18.8777 84 0 65.1223 0 42ZM6.70213 42C6.70213 61.4362 22.5638 77.2979 42 77.2979C61.4362 77.2979 77.2979 61.4362 77.2979 42C77.2979 22.5638 61.4362 6.70213 42 6.70213C22.5638 6.70213 6.70213 22.5638 6.70213 42Z" />
</svg>
