<svg width="60" height="60" viewBox="0 0 60 60" xmlns="http://www.w3.org/2000/svg">
<path clip-rule="evenodd" d="M0 30C0 13.484 13.484 0 30 0C46.516 0 60 13.484 60 30C60 46.516 46.516 60 30 60C13.484 60 0 46.516 0 30ZM4.78723 30C4.78723 43.883 16.117 55.2128 30 55.2128C43.883 55.2128 55.2128 43.883 55.2128 30C55.2128 16.117 43.883 4.78723 30 4.78723C16.117 4.78723 4.78723 16.117 4.78723 30Z" />
<path d="M39.9207 18.6429H38.4524V15.7143H35.5159V18.6429H23.7699V15.7143H20.8334V18.6429H19.3651C17.7353 18.6429 16.4433 19.9607 16.4433 21.5714L16.4286 42.0714C16.4286 43.6821 17.7353 45 19.3651 45H39.9207C41.5357 45 42.8572 43.6821 42.8572 42.0714V21.5714C42.8572 19.9607 41.5357 18.6429 39.9207 18.6429ZM39.9207 42.0714H19.3651V25.9643H39.9207V42.0714ZM22.3016 28.8929H29.6429V36.2143H22.3016V28.8929Z" />
</svg>
