<svg width="83" height="83" viewBox="0 0 83 83" xmlns="http://www.w3.org/2000/svg">
<path d="M41.5 8.5V0.25C18.8125 0.25 0.25 18.8125 0.25 41.5C0.25 64.1875 18.8125 82.75 41.5 82.75C64.1875 82.75 82.75 64.1875 82.75 41.5H74.5C74.5 59.65 59.65 74.5 41.5 74.5C23.35 74.5 8.5 59.65 8.5 41.5C8.5 23.35 23.35 8.5 41.5 8.5Z" />
<path d="M41.5 25V16.75C27.8875 16.75 16.75 27.8875 16.75 41.5C16.75 55.1125 27.8875 66.25 41.5 66.25C55.1125 66.25 66.25 55.1125 66.25 41.5H58C58 50.575 50.575 58 41.5 58C32.425 58 25 50.575 25 41.5C25 32.425 32.425 25 41.5 25Z" />
<path d="M33.25 41.5C33.25 46.0375 36.9625 49.75 41.5 49.75C46.0375 49.75 49.75 46.0375 49.75 41.5C49.75 36.9625 46.0375 33.25 41.5 33.25C36.9625 33.25 33.25 36.9625 33.25 41.5Z" />
</svg>
